<svg width="751" height="200" viewBox="0 0 751 200" fill="none" xmlns="http://www.w3.org/2000/svg">
<path fill-rule="evenodd" clip-rule="evenodd" d="M750.001 0H0.0413987V18.9274H731.111V181.073H18.9254V143.269H18.9316V112.339H38.8278C44.2139 112.339 48.796 111.574 52.5743 110.043C56.3526 108.432 59.4074 106.338 61.7386 103.761C64.1503 101.183 65.8787 98.2431 66.9237 94.9407C68.0492 91.5577 68.6119 88.1344 68.6119 84.6709C68.6119 81.1269 68.0492 77.7036 66.9237 74.4012C65.8787 71.0988 64.1503 68.1588 61.7386 65.5813C59.4074 63.0038 56.3526 60.9499 52.5743 59.4195C48.796 57.8086 44.2139 57.0031 38.8278 57.0031H0V143.269H0.0350873V200H750.001V0ZM229.753 86H211.424C211.102 83.8252 210.379 81.8518 209.253 80.0798C208.128 78.2272 206.721 76.6162 205.033 75.247C203.345 73.8777 201.416 72.8306 199.245 72.1056C197.155 71.3002 194.944 70.8974 192.613 70.8974C188.352 70.8974 184.735 71.7432 181.76 73.4347C178.786 75.0456 176.374 77.2606 174.525 80.0798C172.677 82.8184 171.31 85.9597 170.426 89.5037C169.622 93.0478 169.22 96.7127 169.22 100.498C169.22 104.123 169.622 107.667 170.426 111.131C171.31 114.514 172.677 117.574 174.525 120.313C176.374 123.051 178.786 125.267 181.76 126.958C184.735 128.569 188.352 129.374 192.613 129.374C198.401 129.374 202.903 127.602 206.118 124.058C209.414 120.514 211.424 115.843 212.147 110.043H230.476C229.994 115.44 228.748 120.313 226.738 124.662C224.728 129.012 222.076 132.717 218.78 135.778C215.484 138.839 211.625 141.174 207.204 142.785C202.782 144.396 197.919 145.202 192.613 145.202C186.021 145.202 180.072 144.074 174.767 141.819C169.541 139.483 165.12 136.301 161.502 132.274C157.885 128.247 155.112 123.535 153.182 118.138C151.253 112.661 150.288 106.781 150.288 100.498C150.288 94.0546 151.253 88.0942 153.182 82.617C155.112 77.0593 157.885 72.2264 161.502 68.1186C165.12 64.0107 169.541 60.7888 174.767 58.4529C180.072 56.1171 186.021 54.9492 192.613 54.9492C197.356 54.9492 201.817 55.6338 205.998 57.0031C210.258 58.3724 214.037 60.3861 217.333 63.0441C220.709 65.6216 223.482 68.8435 225.653 72.7097C227.823 76.576 229.19 81.0061 229.753 86ZM18.9316 97.5987V71.7432H33.6427C35.8132 71.7432 37.9033 71.9043 39.9131 72.2265C41.9228 72.5486 43.6913 73.193 45.2187 74.1596C46.7461 75.0456 47.952 76.3343 48.8362 78.0258C49.8009 79.7173 50.2832 81.9323 50.2832 84.6709C50.2832 87.4095 49.8009 89.6246 48.8362 91.316C47.952 93.0075 46.7461 94.3365 45.2187 95.3031C43.6913 96.1891 41.9228 96.7932 39.9131 97.1154C37.9033 97.4376 35.8132 97.5987 33.6427 97.5987H18.9316ZM93.1836 109.922L104.398 78.2675H104.639L115.491 109.922H93.1836ZM94.9923 57.0031L62.4348 143.269H81.487L88.2397 124.058H120.435L126.947 143.269H146.602L114.406 57.0031H94.9923ZM243.404 57.0031V143.269H262.336V115.48L273.188 104.485L299.113 143.269H322.868L285.97 91.0744L319.613 57.0031H295.978L262.336 92.7659V57.0031H243.404ZM330.426 143.269V57.0031H390.959V72.9514H349.358V92.8867H385.412V107.627H349.358V143.269H330.426ZM401.905 57.0031V143.269H462.8V127.32H420.837V57.0031H401.905ZM473.384 143.269V57.0031H537.775V72.9514H492.315V91.4369H534.037V106.177H492.315V127.32H538.74V143.269H473.384ZM551.574 57.0031V143.269H616.931V127.32H570.506V106.177H612.228V91.4369H570.506V72.9514H615.966V57.0031H551.574ZM648.817 143.269V72.9514H623.012V57.0031H693.554V72.9514H667.749V143.269H648.817Z" fill="#42FF00"/>
</svg>
